<svg width="18" height="14" viewBox="0 0 18 14" fill="none" xmlns="http://www.w3.org/2000/svg">
<path d="M9.20312 3.63086L3.8125 8.08398V12.8594C3.8125 13.123 4.01758 13.3281 4.28125 13.3281H7.5625C7.79688 13.3281 8.00195 13.123 8.00195 12.8594V10.0469C8.00195 9.8125 8.23633 9.57812 8.4707 9.57812H10.3457C10.6094 9.57812 10.8145 9.8125 10.8145 10.0469V12.8594C10.8145 13.123 11.0488 13.3281 11.2832 13.3281H14.5938C14.8281 13.3281 15.0625 13.123 15.0625 12.8594V8.05469L9.64258 3.63086C9.58398 3.57227 9.49609 3.54297 9.4375 3.54297C9.34961 3.54297 9.26172 3.57227 9.20312 3.63086ZM17.7285 6.64844L15.2969 4.62695V0.583984C15.2969 0.378906 15.1211 0.232422 14.9453 0.232422H13.3047C13.0996 0.232422 12.9531 0.378906 12.9531 0.583984V2.69336L10.3164 0.525391C10.082 0.349609 9.75977 0.232422 9.4375 0.232422C9.08594 0.232422 8.76367 0.349609 8.5293 0.525391L1.11719 6.64844C1.0293 6.70703 0.970703 6.82422 0.970703 6.91211C0.970703 7 1.0293 7.08789 1.05859 7.14648L1.82031 8.05469C1.87891 8.14258 1.9668 8.17188 2.08398 8.17188C2.17188 8.17188 2.25977 8.14258 2.31836 8.08398L9.20312 2.42969C9.26172 2.37109 9.34961 2.3418 9.4375 2.3418C9.49609 2.3418 9.58398 2.37109 9.64258 2.42969L16.5273 8.08398C16.5859 8.14258 16.6738 8.17188 16.7617 8.17188C16.8789 8.17188 16.9668 8.14258 17.0254 8.05469L17.7871 7.14648C17.8457 7.08789 17.875 7 17.875 6.91211C17.875 6.82422 17.8164 6.70703 17.7285 6.64844Z" fill="white"/>
</svg>
