<svg width="20" height="19" viewBox="0 0 20 19" fill="none" xmlns="http://www.w3.org/2000/svg">
<path d="M8.51562 2.19375C8.10937 2.6 8.15 3.20938 8.51562 3.61563L13.4312 8.24688H1.77187C1.20312 8.24688 0.796875 8.69375 0.796875 9.22188V10.5219C0.796875 11.0906 1.20312 11.4969 1.77187 11.4969H13.4312L8.51562 16.1688C8.15 16.575 8.15 17.1844 8.51562 17.5906L9.40937 18.4844C9.81562 18.85 10.425 18.85 10.7906 18.4844L18.7125 10.5625C19.0781 10.1969 19.0781 9.5875 18.7125 9.18125L10.7906 1.3C10.425 0.934376 9.81562 0.934376 9.40937 1.3L8.51562 2.19375Z" fill="white"/>
</svg>
