<svg width="19" height="19" viewBox="0 0 19 19" fill="none" xmlns="http://www.w3.org/2000/svg">
<path d="M8.51562 1.83984C8.10937 2.24609 8.15 2.85547 8.51562 3.26172L13.4312 7.89297H1.77187C1.20312 7.89297 0.796875 8.33984 0.796875 8.86797V10.168C0.796875 10.7367 1.20312 11.143 1.77187 11.143H13.4312L8.51562 15.8148C8.15 16.2211 8.15 16.8305 8.51562 17.2367L9.40937 18.1305C9.81562 18.4961 10.425 18.4961 10.7906 18.1305L18.7125 10.2086C19.0781 9.84297 19.0781 9.23359 18.7125 8.82734L10.7906 0.946094C10.425 0.580469 9.81562 0.580469 9.40937 0.946094L8.51562 1.83984Z" fill="white"/>
</svg>
