<svg width="15" height="15" viewBox="0 0 15 15" fill="none" xmlns="http://www.w3.org/2000/svg">
<path d="M7.5 0.09375C3.48633 0.09375 0.234375 3.375 0.234375 7.35938C0.234375 11.373 3.48633 14.625 7.5 14.625C11.4844 14.625 14.7656 11.373 14.7656 7.35938C14.7656 3.375 11.4844 0.09375 7.5 0.09375ZM7.5 13.2188C4.24805 13.2188 1.64062 10.6113 1.64062 7.35938C1.64062 4.13672 4.24805 1.5 7.5 1.5C10.7227 1.5 13.3594 4.13672 13.3594 7.35938C13.3594 10.6113 10.7227 13.2188 7.5 13.2188ZM10.6348 10.2598C10.6934 10.2012 10.7227 10.1133 10.7227 10.0254C10.7227 9.9375 10.6934 9.87891 10.6641 9.82031L10.0781 9.0293C9.96094 8.85352 9.72656 8.82422 9.55078 8.9707C9.28711 9.20508 8.58398 9.76172 7.64648 9.76172C6.12305 9.76172 5.33203 8.53125 5.33203 7.33008C5.33203 6.01172 6.21094 4.95703 7.61719 4.95703C8.49609 4.95703 9.16992 5.42578 9.43359 5.63086C9.58008 5.74805 9.84375 5.71875 9.93164 5.54297L10.4883 4.72266C10.5176 4.66406 10.5469 4.60547 10.5469 4.51758C10.5469 4.42969 10.4883 4.3418 10.4297 4.2832C10.166 4.01953 9.19922 3.25781 7.55859 3.25781C5.24414 3.25781 3.45703 5.01562 3.45703 7.33008C3.45703 9.67383 5.15625 11.4902 7.58789 11.4902C9.28711 11.4902 10.3418 10.5527 10.6348 10.2598Z" fill="white"/>
</svg>
