<svg width="15" height="16" viewBox="0 0 15 16" fill="none" xmlns="http://www.w3.org/2000/svg">
<path d="M7.5 0.59375C3.48633 0.59375 0.234375 3.875 0.234375 7.85938C0.234375 11.873 3.48633 15.125 7.5 15.125C11.4844 15.125 14.7656 11.873 14.7656 7.85938C14.7656 3.875 11.4844 0.59375 7.5 0.59375ZM7.5 13.7188C4.24805 13.7188 1.64062 11.1113 1.64062 7.85938C1.64062 4.63672 4.24805 2 7.5 2C10.7227 2 13.3594 4.63672 13.3594 7.85938C13.3594 11.1113 10.7227 13.7188 7.5 13.7188ZM10.6348 10.7598C10.6934 10.7012 10.7227 10.6133 10.7227 10.5254C10.7227 10.4375 10.6934 10.3789 10.6641 10.3203L10.0781 9.5293C9.96094 9.35352 9.72656 9.32422 9.55078 9.4707C9.28711 9.70508 8.58398 10.2617 7.64648 10.2617C6.12305 10.2617 5.33203 9.03125 5.33203 7.83008C5.33203 6.51172 6.21094 5.45703 7.61719 5.45703C8.49609 5.45703 9.16992 5.92578 9.43359 6.13086C9.58008 6.24805 9.84375 6.21875 9.93164 6.04297L10.4883 5.22266C10.5176 5.16406 10.5469 5.10547 10.5469 5.01758C10.5469 4.92969 10.4883 4.8418 10.4297 4.7832C10.166 4.51953 9.19922 3.75781 7.55859 3.75781C5.24414 3.75781 3.45703 5.51562 3.45703 7.83008C3.45703 10.1738 5.15625 11.9902 7.58789 11.9902C9.28711 11.9902 10.3418 11.0527 10.6348 10.7598Z" fill="white"/>
</svg>
