<svg width="18" height="16" viewBox="0 0 18 16" fill="none" xmlns="http://www.w3.org/2000/svg">
<path d="M17.1562 2.73438H14.1094V1.5625C14.1094 1.18164 13.7871 0.859375 13.4062 0.859375H5.4375C5.02734 0.859375 4.73438 1.18164 4.73438 1.5625V2.73438H1.6875C1.27734 2.73438 0.984375 3.05664 0.984375 3.4375V5.07812C0.984375 6.13281 1.62891 7.2168 2.77148 8.03711C3.70898 8.71094 4.82227 9.12109 5.99414 9.26758C6.93164 10.791 8.01562 11.4062 8.01562 11.4062V13.5156H6.60938C5.55469 13.5156 4.73438 14.1309 4.73438 15.1562V15.5078C4.73438 15.7129 4.88086 15.8594 5.08594 15.8594H13.7578C13.9336 15.8594 14.1094 15.7129 14.1094 15.5078V15.1562C14.1094 14.1309 13.2598 13.5156 12.2344 13.5156H10.8281V11.4062C10.8281 11.4062 11.8828 10.791 12.8203 9.26758C13.9922 9.12109 15.1055 8.71094 16.043 8.03711C17.1855 7.2168 17.8594 6.13281 17.8594 5.07812V3.4375C17.8594 3.05664 17.5371 2.73438 17.1562 2.73438ZM3.88477 6.51367C3.15234 6.01562 2.85938 5.42969 2.85938 5.07812V4.60938H4.73438C4.76367 5.57617 4.91016 6.42578 5.11523 7.1582C4.64648 6.98242 4.23633 6.77734 3.88477 6.51367ZM15.9844 5.07812C15.9844 5.57617 15.457 6.16211 14.9297 6.51367C14.5781 6.77734 14.168 6.98242 13.6992 7.1582C13.9043 6.42578 14.0508 5.57617 14.0801 4.60938H15.9844V5.07812Z" fill="white"/>
</svg>
