<svg width="18" height="16" viewBox="0 0 18 16" fill="none" xmlns="http://www.w3.org/2000/svg">
<path d="M17.1562 2.23438H14.1094V1.0625C14.1094 0.681641 13.7871 0.359375 13.4062 0.359375H5.4375C5.02734 0.359375 4.73438 0.681641 4.73438 1.0625V2.23438H1.6875C1.27734 2.23438 0.984375 2.55664 0.984375 2.9375V4.57812C0.984375 5.63281 1.62891 6.7168 2.77148 7.53711C3.70898 8.21094 4.82227 8.62109 5.99414 8.76758C6.93164 10.291 8.01562 10.9062 8.01562 10.9062V13.0156H6.60938C5.55469 13.0156 4.73438 13.6309 4.73438 14.6562V15.0078C4.73438 15.2129 4.88086 15.3594 5.08594 15.3594H13.7578C13.9336 15.3594 14.1094 15.2129 14.1094 15.0078V14.6562C14.1094 13.6309 13.2598 13.0156 12.2344 13.0156H10.8281V10.9062C10.8281 10.9062 11.8828 10.291 12.8203 8.76758C13.9922 8.62109 15.1055 8.21094 16.043 7.53711C17.1855 6.7168 17.8594 5.63281 17.8594 4.57812V2.9375C17.8594 2.55664 17.5371 2.23438 17.1562 2.23438ZM3.88477 6.01367C3.15234 5.51562 2.85938 4.92969 2.85938 4.57812V4.10938H4.73438C4.76367 5.07617 4.91016 5.92578 5.11523 6.6582C4.64648 6.48242 4.23633 6.27734 3.88477 6.01367ZM15.9844 4.57812C15.9844 5.07617 15.457 5.66211 14.9297 6.01367C14.5781 6.27734 14.168 6.48242 13.6992 6.6582C13.9043 5.92578 14.0508 5.07617 14.0801 4.10938H15.9844V4.57812Z" fill="white"/>
</svg>
