<svg width="9" height="16" viewBox="0 0 9 16" fill="none" xmlns="http://www.w3.org/2000/svg">
<path d="M3.28125 9.55273V14.1523L3.92578 15.1191C4.04297 15.3242 4.36523 15.3242 4.48242 15.1191L5.15625 14.1523V9.55273C4.83398 9.61133 4.51172 9.64062 4.21875 9.64062C3.89648 9.64062 3.57422 9.61133 3.28125 9.55273ZM4.21875 0.265625C1.875 0.265625 0 2.16992 0 4.48438C0 6.82812 1.875 8.70312 4.21875 8.70312C6.5332 8.70312 8.4375 6.82812 8.4375 4.48438C8.4375 2.16992 6.5332 0.265625 4.21875 0.265625ZM4.21875 2.49219C3.10547 2.49219 2.22656 3.40039 2.22656 4.48438C2.22656 4.68945 2.05078 4.83594 1.875 4.83594C1.66992 4.83594 1.52344 4.68945 1.52344 4.48438C1.52344 3.01953 2.72461 1.78906 4.21875 1.78906C4.39453 1.78906 4.57031 1.96484 4.57031 2.14062C4.57031 2.3457 4.39453 2.49219 4.21875 2.49219Z" fill="white"/>
</svg>
