<svg width="15" height="12" viewBox="0 0 15 12" fill="none" xmlns="http://www.w3.org/2000/svg">
<path d="M14.707 3.86133C14.0332 4.38867 13.1836 5.0332 10.1953 7.20117C9.60938 7.64062 8.52539 8.60742 7.5 8.60742C6.44531 8.60742 5.39062 7.64062 4.77539 7.20117C1.78711 5.0332 0.9375 4.38867 0.263672 3.86133C0.146484 3.77344 0 3.86133 0 4.00781V9.98438C0 10.7754 0.615234 11.3906 1.40625 11.3906H13.5938C14.3555 11.3906 15 10.7754 15 9.98438V4.00781C15 3.86133 14.8242 3.77344 14.707 3.86133ZM7.5 7.64062C8.17383 7.66992 9.14062 6.79102 9.63867 6.43945C13.5352 3.62695 13.8281 3.36328 14.707 2.66016C14.8828 2.54297 15 2.33789 15 2.10352V1.54688C15 0.785156 14.3555 0.140625 13.5938 0.140625H1.40625C0.615234 0.140625 0 0.785156 0 1.54688V2.10352C0 2.33789 0.0878906 2.54297 0.263672 2.66016C1.14258 3.36328 1.43555 3.62695 5.33203 6.43945C5.83008 6.79102 6.79688 7.66992 7.5 7.64062Z" fill="white"/>
</svg>
