<svg width="34" height="28" viewBox="0 0 34 28" fill="none" xmlns="http://www.w3.org/2000/svg">
<path d="M28.2422 22.9414C28.2422 22.5312 28.0078 22.2383 27.5977 22.2383C27.1875 22.2383 26.9531 22.5312 26.9531 22.9414C26.9531 23.293 27.1875 23.5859 27.5977 23.5859C28.0078 23.5859 28.2422 23.3516 28.2422 22.9414ZM10.0781 22.2383C9.66797 22.2383 9.375 22.5312 9.375 22.9414C9.375 23.293 9.66797 23.5859 10.0781 23.5859C10.4297 23.5859 10.7227 23.3516 10.7227 22.9414C10.6641 22.5312 10.4297 22.2383 10.0781 22.2383ZM16.9336 22.2383C16.6406 22.2383 16.4062 22.4141 16.4062 22.707H17.5195C17.4609 22.4141 17.2266 22.2383 16.9336 22.2383ZM23.2617 22.2383C22.8516 22.2383 22.6172 22.5312 22.6172 22.9414C22.6172 23.293 22.8516 23.5859 23.2617 23.5859C23.6719 23.5859 23.9062 23.3516 23.9062 22.9414C23.9062 22.5312 23.6719 22.2383 23.2617 22.2383ZM29.4727 23.7617C29.4727 23.7617 29.4727 23.7031 29.4141 23.7031C29.4141 23.7031 29.4141 23.7031 29.3555 23.7031C29.3555 23.6445 29.3555 23.6445 29.2969 23.6445C29.2969 23.6445 29.2969 23.6445 29.2383 23.7031C29.2383 23.7031 29.2383 23.7031 29.1797 23.7031V23.7617C29.1211 23.7617 29.1211 23.8203 29.1211 23.8203C29.1211 23.8789 29.1211 23.8789 29.1797 23.8789C29.1797 23.9375 29.1797 23.9375 29.1797 23.9375C29.2383 23.9375 29.2383 23.9961 29.2383 23.9961C29.2969 23.9961 29.2969 23.9961 29.2969 23.9961C29.3555 23.9961 29.3555 23.9961 29.3555 23.9961C29.4141 23.9961 29.4141 23.9375 29.4141 23.9375C29.4727 23.9375 29.4727 23.9375 29.4727 23.8789C29.4727 23.8789 29.4727 23.8789 29.4727 23.8203V23.7617ZM29.3555 23.8789L29.4141 23.9375H29.3555L29.2969 23.8203V23.9375H29.2383V23.7031H29.2969C29.3555 23.7031 29.3555 23.7617 29.3555 23.7617C29.4141 23.7617 29.4141 23.7617 29.4141 23.7617C29.4141 23.8203 29.4141 23.8203 29.3555 23.8203V23.8789ZM33.75 3.60547C33.75 2.08203 32.4609 0.792969 30.9375 0.792969H2.8125C1.23047 0.792969 0 2.08203 0 3.60547V24.2305C0 25.8125 1.23047 27.043 2.8125 27.043H30.9375C32.4609 27.043 33.75 25.8125 33.75 24.2305V3.60547ZM3.75 11.8086C3.75 7.35547 7.38281 3.72266 11.8359 3.72266C13.418 3.72266 15 4.19141 16.3477 5.07031C12.0703 8.52734 12.0703 15.0898 16.3477 18.5469C15 19.4258 13.418 19.9531 11.8359 19.9531C7.38281 19.9531 3.75 16.3203 3.75 11.8086ZM16.875 18.1953C12.7148 14.9727 12.7148 8.70312 16.875 5.42188C20.9766 8.70312 20.9766 14.9727 16.875 18.1953ZM8.49609 22.6484V23.9961H8.02734C8.02734 22.8242 8.14453 22.2383 7.55859 22.2383C6.91406 22.2383 7.03125 22.9414 7.03125 23.9961H6.5625C6.5625 22.8242 6.67969 22.2383 6.09375 22.2383C5.39062 22.2383 5.56641 22.8828 5.56641 23.9961H5.09766V21.8281H5.56641V22.1211C5.74219 21.8867 5.97656 21.7695 6.21094 21.7695C6.50391 21.7695 6.73828 21.9453 6.91406 22.1797C7.08984 21.8867 7.38281 21.7695 7.67578 21.7695C8.20312 21.8281 8.49609 22.1211 8.49609 22.6484ZM11.1328 21.8281V23.9961H10.6641V23.7617C10.5469 23.9375 10.3125 24.0547 10.0195 24.0547C9.375 24.0547 8.90625 23.5859 8.90625 22.9414C8.90625 22.2969 9.375 21.7695 10.0195 21.7695C10.3125 21.7695 10.5469 21.9453 10.6641 22.1211V21.8281H11.1328ZM13.5352 23.3516C13.5352 24.1719 12.2461 24.2305 11.6016 23.8203L11.8359 23.4102C12.2461 23.7031 13.0078 23.7617 13.0078 23.3516C13.0078 23 11.6602 23.3516 11.6602 22.4727C11.6602 21.6523 12.8906 21.6523 13.4766 22.0039L13.2422 22.4141C12.8906 22.1797 12.1875 22.1211 12.1875 22.4727C12.1875 22.8828 13.5352 22.4727 13.5352 23.3516ZM15.5859 23.8789C15.293 24.1133 14.2383 24.2891 14.2383 23.2344V22.2969H13.8281V21.8281H14.2383V21.1836H14.7656V21.8281H15.5273V22.2969H14.7656V23.2344C14.7656 23.7617 15.2344 23.6445 15.4688 23.5273L15.5859 23.8789ZM16.3477 23.1172C16.5234 23.7617 17.168 23.7617 17.6367 23.4102L17.8711 23.7617C17.2266 24.3477 15.8789 24.1133 15.8789 22.9414C15.8789 22.2383 16.3477 21.7695 16.9336 21.7695C17.5195 21.7695 17.9883 22.1797 17.9883 23.1172H16.3477ZM19.8047 21.8281L19.6875 22.2969C19.5117 22.1797 18.9258 22.1211 18.9258 22.7656V23.9961H18.457V21.8281H18.9258V22.1211C19.1602 21.7695 19.5703 21.7109 19.8047 21.8281ZM20.4492 22.9414C20.4492 23.5859 21.1523 23.8203 21.6797 23.4102L21.9141 23.8203C21.2695 24.3477 19.9805 24.1133 19.9805 22.9414C19.9805 21.8281 21.2109 21.5352 21.9141 22.0625L21.6797 22.4141C21.1523 22.0625 20.4492 22.2383 20.4492 22.9414ZM24.375 21.8281V23.9961H23.9062V23.7617C23.4375 24.3477 22.1484 24.0547 22.1484 22.9414C22.1484 21.8281 23.3789 21.4766 23.9062 22.1211V21.8281H24.375ZM26.3086 21.8281L26.1914 22.2969C25.957 22.1797 25.4297 22.1211 25.4297 22.7656V23.9961H24.9609V21.8281H25.4297V22.1211C25.6641 21.7109 26.1914 21.7695 26.3086 21.8281ZM28.7109 21.0078V23.9961H28.2422V23.7617C27.7734 24.3477 26.4844 24.0547 26.4844 22.9414C26.4844 21.8281 27.7734 21.4766 28.2422 22.1211V21.0078H28.7109ZM29.1211 16.5547H29.0039H29.2969H29.1797V16.8477H29.1211V16.5547ZM29.5312 23.8203C29.5312 23.8789 29.5312 23.8789 29.5312 23.9375C29.4727 23.9375 29.4727 23.9375 29.4727 23.9961C29.4727 23.9961 29.4141 23.9961 29.4141 24.0547C29.3555 24.0547 29.3555 24.0547 29.2969 24.0547H29.2383C29.1797 23.9961 29.1797 23.9961 29.1797 23.9961C29.1211 23.9375 29.1211 23.9375 29.1211 23.9375C29.1211 23.8789 29.1211 23.8789 29.1211 23.8203V23.7617C29.1211 23.7031 29.1211 23.7031 29.1797 23.7031C29.1797 23.6445 29.1797 23.6445 29.2383 23.6445L29.2969 23.5859C29.3555 23.5859 29.3555 23.6445 29.4141 23.6445C29.4141 23.6445 29.4727 23.6445 29.4727 23.7031C29.4727 23.7031 29.4727 23.7031 29.5312 23.7617V23.8203ZM29.707 16.5547V16.8477H29.6484V16.6133L29.5898 16.7891H29.5312L29.4141 16.6133V16.8477H29.3555V16.5547H29.4727L29.5312 16.7305L29.6484 16.5547H29.707ZM30 11.8086C30 16.3203 26.3086 19.9531 21.8555 19.8945C20.2734 19.8945 18.6914 19.4258 17.4023 18.5469C21.6797 15.0898 21.6211 8.52734 17.4023 5.07031C18.6914 4.19141 20.2734 3.72266 21.8555 3.72266C26.3086 3.72266 30 7.35547 30 11.8086Z" fill="white"/>
</svg>
