<svg width="34" height="27" viewBox="0 0 34 27" fill="none" xmlns="http://www.w3.org/2000/svg">
<path d="M27.5391 12.4531L27.3633 11.6328C27.2461 11.9844 27.0117 12.5703 27.0703 12.5117C27.0703 12.5117 26.3086 14.5625 26.1328 15.0898H28.0664C27.9492 14.6211 27.5391 12.4531 27.5391 12.4531ZM33.75 3.54688C33.75 2.02344 32.4609 0.734375 30.9375 0.734375H2.8125C1.23047 0.734375 0 2.02344 0 3.54688V24.1719C0 25.7539 1.23047 26.9844 2.8125 26.9844H30.9375C32.4609 26.9844 33.75 25.7539 33.75 24.1719V3.54688ZM8.90625 18.3125H6.44531L4.33594 10.4023C3.57422 9.93359 2.75391 9.64062 1.875 9.40625V9.17188H5.68359C6.21094 9.23047 6.62109 9.40625 6.73828 9.99219L7.55859 14.1523L7.79297 15.3828L10.1367 9.17188H12.5977L8.90625 18.3125ZM14.4141 18.3125H12.0703L13.5352 9.17188H15.9375L14.4141 18.3125ZM22.6172 15.3242C22.6172 17.1992 21.0352 18.4297 18.5156 18.4297C17.4609 18.4297 16.4648 18.1953 15.9375 17.9609L16.2305 15.9102L16.5234 16.0273C17.3438 16.3789 17.8125 16.5547 18.75 16.5547C19.4531 16.5547 20.1562 16.2617 20.1562 15.6172C20.1562 15.2656 19.8633 14.9727 18.9258 14.5039C18.0469 14.0938 16.875 13.332 16.875 12.043C16.875 10.2852 18.5156 9.05469 20.8594 9.05469C21.7969 9.05469 22.5 9.23047 22.9688 9.40625L22.6758 11.3984L22.4414 11.2812C22.0312 11.1055 21.4453 10.9297 20.6836 10.9297C19.7461 10.9297 19.3359 11.3398 19.3359 11.75C19.3359 12.1602 19.8633 12.4531 20.6836 12.8633C22.0312 13.5078 22.6758 14.2695 22.6172 15.3242ZM30.9375 18.3125H28.7109C28.7109 18.3125 28.5352 17.2578 28.4766 16.9648H25.4297C25.3125 17.1992 24.9609 18.3125 24.9609 18.3125H22.4414L25.957 9.93359C26.1914 9.34766 26.6016 9.17188 27.1875 9.17188H29.0039L30.9375 18.3125Z" fill="white"/>
</svg>
