<svg width="35" height="27" viewBox="0 0 35 27" fill="none" xmlns="http://www.w3.org/2000/svg">
<path d="M29.3281 11.8086C28.8008 11.8086 28.2148 12.2188 28.2148 13.1562H30.3828C30.3828 12.2188 29.8555 11.8086 29.3281 11.8086ZM22.4727 11.9844C21.9453 11.9844 21.6523 12.1602 21.4766 12.3945V15.5C21.6523 15.6758 21.9453 15.8516 22.4727 15.8516C23.2344 15.8516 23.7031 15.0312 23.7031 13.918C23.7031 12.8047 23.1758 11.9844 22.4727 11.9844ZM31.4375 0.734375H3.3125C1.73047 0.734375 0.5 2.02344 0.5 3.54688V24.1719C0.5 25.7539 1.73047 26.9844 3.3125 26.9844H31.4375C32.9609 26.9844 34.25 25.7539 34.25 24.1719V3.54688C34.25 2.02344 32.9609 0.734375 31.4375 0.734375ZM7.64844 15.3828C7.64844 16.8477 6.41797 17.7266 4.71875 17.7266C4.01562 17.7266 3.19531 17.5508 2.43359 17.2578V15.2656C3.13672 15.6172 4.01562 15.9102 4.71875 15.9102C5.1875 15.9102 5.53906 15.793 5.53906 15.3828C5.53906 14.3867 2.375 14.7969 2.375 12.5117C2.375 10.9883 3.48828 10.1094 5.1875 10.1094C5.83203 10.1094 6.53516 10.2266 7.23828 10.5195V12.4531C6.59375 12.1016 5.77344 11.9258 5.1875 11.9258C4.71875 11.9258 4.42578 12.043 4.42578 12.3945C4.42578 13.332 7.64844 12.8633 7.64844 15.3828ZM11.6914 12.043H10.1094V14.9727C10.1094 16.2031 11.3984 15.8516 11.6914 15.7344V17.4336C11.3984 17.6094 10.8711 17.7266 10.2266 17.7266C8.99609 17.7266 8.05859 16.7891 8.05859 15.5586V8.87891L10.1094 8.46875V10.2852H11.6914V12.043ZM16.0273 12.1602C15.7344 12.1016 14.9141 11.9844 14.3867 12.6289V17.5508H12.3359V10.2852H14.1523L14.2695 10.8711C14.7383 9.99219 15.7344 10.168 15.9688 10.2852H16.0273V12.1602ZM18.6055 17.5508H16.4961V10.2852H18.6055V17.5508ZM18.6055 9.17188L16.4961 9.64062V7.94141L18.6055 7.47266V9.17188ZM22.9414 17.7266C22.1797 17.7266 21.7695 17.375 21.4766 17.1992V19.543L19.3672 19.9531V10.2852H21.1836L21.3008 10.7539C21.5938 10.5195 22.1211 10.1094 22.9414 10.1094C24.4062 10.1094 25.7539 11.457 25.7539 13.8594C25.7539 16.4961 24.4062 17.7266 22.9414 17.7266ZM32.3164 14.6797H28.2734C28.332 15.6758 29.0352 15.9688 29.8555 15.9688C30.6758 15.9688 31.3203 15.793 31.9062 15.5V17.1406C31.3203 17.4922 30.6172 17.7266 29.6211 17.7266C27.5703 17.7266 26.1641 16.4375 26.1641 13.918C26.1641 11.8086 27.3359 10.1094 29.3281 10.1094C31.3203 10.1094 32.375 11.8086 32.375 13.918C32.375 14.1523 32.3164 14.5625 32.3164 14.6797Z" fill="white"/>
</svg>
