<svg width="38" height="31" viewBox="0 0 38 31" fill="none" xmlns="http://www.w3.org/2000/svg">
<path d="M28.2422 23.9414C28.2422 23.5312 28.0078 23.2383 27.5977 23.2383C27.1875 23.2383 26.9531 23.5312 26.9531 23.9414C26.9531 24.293 27.1875 24.5859 27.5977 24.5859C28.0078 24.5859 28.2422 24.3516 28.2422 23.9414ZM10.0781 23.2383C9.66797 23.2383 9.375 23.5312 9.375 23.9414C9.375 24.293 9.66797 24.5859 10.0781 24.5859C10.4297 24.5859 10.7227 24.3516 10.7227 23.9414C10.6641 23.5312 10.4297 23.2383 10.0781 23.2383ZM16.9336 23.2383C16.6406 23.2383 16.4062 23.4141 16.4062 23.707H17.5195C17.4609 23.4141 17.2266 23.2383 16.9336 23.2383ZM23.2617 23.2383C22.8516 23.2383 22.6172 23.5312 22.6172 23.9414C22.6172 24.293 22.8516 24.5859 23.2617 24.5859C23.6719 24.5859 23.9062 24.3516 23.9062 23.9414C23.9062 23.5312 23.6719 23.2383 23.2617 23.2383ZM29.4727 24.7617C29.4727 24.7617 29.4727 24.7031 29.4141 24.7031C29.4141 24.7031 29.4141 24.7031 29.3555 24.7031C29.3555 24.6445 29.3555 24.6445 29.2969 24.6445C29.2969 24.6445 29.2969 24.6445 29.2383 24.7031C29.2383 24.7031 29.2383 24.7031 29.1797 24.7031V24.7617C29.1211 24.7617 29.1211 24.8203 29.1211 24.8203C29.1211 24.8789 29.1211 24.8789 29.1797 24.8789C29.1797 24.9375 29.1797 24.9375 29.1797 24.9375C29.2383 24.9375 29.2383 24.9961 29.2383 24.9961C29.2969 24.9961 29.2969 24.9961 29.2969 24.9961C29.3555 24.9961 29.3555 24.9961 29.3555 24.9961C29.4141 24.9961 29.4141 24.9375 29.4141 24.9375C29.4727 24.9375 29.4727 24.9375 29.4727 24.8789C29.4727 24.8789 29.4727 24.8789 29.4727 24.8203V24.7617ZM29.3555 24.8789L29.4141 24.9375H29.3555L29.2969 24.8203V24.9375H29.2383V24.7031H29.2969C29.3555 24.7031 29.3555 24.7617 29.3555 24.7617C29.4141 24.7617 29.4141 24.7617 29.4141 24.7617C29.4141 24.8203 29.4141 24.8203 29.3555 24.8203V24.8789ZM33.75 4.60547C33.75 3.08203 32.4609 1.79297 30.9375 1.79297H2.8125C1.23047 1.79297 0 3.08203 0 4.60547V25.2305C0 26.8125 1.23047 28.043 2.8125 28.043H30.9375C32.4609 28.043 33.75 26.8125 33.75 25.2305V4.60547ZM3.75 12.8086C3.75 8.35547 7.38281 4.72266 11.8359 4.72266C13.418 4.72266 15 5.19141 16.3477 6.07031C12.0703 9.52734 12.0703 16.0898 16.3477 19.5469C15 20.4258 13.418 20.9531 11.8359 20.9531C7.38281 20.9531 3.75 17.3203 3.75 12.8086ZM16.875 19.1953C12.7148 15.9727 12.7148 9.70312 16.875 6.42188C20.9766 9.70312 20.9766 15.9727 16.875 19.1953ZM8.49609 23.6484V24.9961H8.02734C8.02734 23.8242 8.14453 23.2383 7.55859 23.2383C6.91406 23.2383 7.03125 23.9414 7.03125 24.9961H6.5625C6.5625 23.8242 6.67969 23.2383 6.09375 23.2383C5.39062 23.2383 5.56641 23.8828 5.56641 24.9961H5.09766V22.8281H5.56641V23.1211C5.74219 22.8867 5.97656 22.7695 6.21094 22.7695C6.50391 22.7695 6.73828 22.9453 6.91406 23.1797C7.08984 22.8867 7.38281 22.7695 7.67578 22.7695C8.20312 22.8281 8.49609 23.1211 8.49609 23.6484ZM11.1328 22.8281V24.9961H10.6641V24.7617C10.5469 24.9375 10.3125 25.0547 10.0195 25.0547C9.375 25.0547 8.90625 24.5859 8.90625 23.9414C8.90625 23.2969 9.375 22.7695 10.0195 22.7695C10.3125 22.7695 10.5469 22.9453 10.6641 23.1211V22.8281H11.1328ZM13.5352 24.3516C13.5352 25.1719 12.2461 25.2305 11.6016 24.8203L11.8359 24.4102C12.2461 24.7031 13.0078 24.7617 13.0078 24.3516C13.0078 24 11.6602 24.3516 11.6602 23.4727C11.6602 22.6523 12.8906 22.6523 13.4766 23.0039L13.2422 23.4141C12.8906 23.1797 12.1875 23.1211 12.1875 23.4727C12.1875 23.8828 13.5352 23.4727 13.5352 24.3516ZM15.5859 24.8789C15.293 25.1133 14.2383 25.2891 14.2383 24.2344V23.2969H13.8281V22.8281H14.2383V22.1836H14.7656V22.8281H15.5273V23.2969H14.7656V24.2344C14.7656 24.7617 15.2344 24.6445 15.4688 24.5273L15.5859 24.8789ZM16.3477 24.1172C16.5234 24.7617 17.168 24.7617 17.6367 24.4102L17.8711 24.7617C17.2266 25.3477 15.8789 25.1133 15.8789 23.9414C15.8789 23.2383 16.3477 22.7695 16.9336 22.7695C17.5195 22.7695 17.9883 23.1797 17.9883 24.1172H16.3477ZM19.8047 22.8281L19.6875 23.2969C19.5117 23.1797 18.9258 23.1211 18.9258 23.7656V24.9961H18.457V22.8281H18.9258V23.1211C19.1602 22.7695 19.5703 22.7109 19.8047 22.8281ZM20.4492 23.9414C20.4492 24.5859 21.1523 24.8203 21.6797 24.4102L21.9141 24.8203C21.2695 25.3477 19.9805 25.1133 19.9805 23.9414C19.9805 22.8281 21.2109 22.5352 21.9141 23.0625L21.6797 23.4141C21.1523 23.0625 20.4492 23.2383 20.4492 23.9414ZM24.375 22.8281V24.9961H23.9062V24.7617C23.4375 25.3477 22.1484 25.0547 22.1484 23.9414C22.1484 22.8281 23.3789 22.4766 23.9062 23.1211V22.8281H24.375ZM26.3086 22.8281L26.1914 23.2969C25.957 23.1797 25.4297 23.1211 25.4297 23.7656V24.9961H24.9609V22.8281H25.4297V23.1211C25.6641 22.7109 26.1914 22.7695 26.3086 22.8281ZM28.7109 22.0078V24.9961H28.2422V24.7617C27.7734 25.3477 26.4844 25.0547 26.4844 23.9414C26.4844 22.8281 27.7734 22.4766 28.2422 23.1211V22.0078H28.7109ZM29.1211 17.5547H29.0039H29.2969H29.1797V17.8477H29.1211V17.5547ZM29.5312 24.8203C29.5312 24.8789 29.5312 24.8789 29.5312 24.9375C29.4727 24.9375 29.4727 24.9375 29.4727 24.9961C29.4727 24.9961 29.4141 24.9961 29.4141 25.0547C29.3555 25.0547 29.3555 25.0547 29.2969 25.0547H29.2383C29.1797 24.9961 29.1797 24.9961 29.1797 24.9961C29.1211 24.9375 29.1211 24.9375 29.1211 24.9375C29.1211 24.8789 29.1211 24.8789 29.1211 24.8203V24.7617C29.1211 24.7031 29.1211 24.7031 29.1797 24.7031C29.1797 24.6445 29.1797 24.6445 29.2383 24.6445L29.2969 24.5859C29.3555 24.5859 29.3555 24.6445 29.4141 24.6445C29.4141 24.6445 29.4727 24.6445 29.4727 24.7031C29.4727 24.7031 29.4727 24.7031 29.5312 24.7617V24.8203ZM29.707 17.5547V17.8477H29.6484V17.6133L29.5898 17.7891H29.5312L29.4141 17.6133V17.8477H29.3555V17.5547H29.4727L29.5312 17.7305L29.6484 17.5547H29.707ZM30 12.8086C30 17.3203 26.3086 20.9531 21.8555 20.8945C20.2734 20.8945 18.6914 20.4258 17.4023 19.5469C21.6797 16.0898 21.6211 9.52734 17.4023 6.07031C18.6914 5.19141 20.2734 4.72266 21.8555 4.72266C26.3086 4.72266 30 8.35547 30 12.8086Z" fill="white"/>
</svg>
