<svg width="35" height="27" viewBox="0 0 35 27" fill="none" xmlns="http://www.w3.org/2000/svg">
<path d="M11.3984 14.0352C11.3984 13.4492 10.9883 13.0977 10.4609 13.0977C9.69922 13.0977 9.17188 13.6836 9.17188 14.3867C9.17188 14.9727 9.58203 15.2656 10.1094 15.2656C10.8125 15.2656 11.3984 14.7383 11.3984 14.0352ZM5.1875 11.1641H4.89453C4.83594 11.1641 4.71875 11.2227 4.71875 11.3398L4.48438 12.9219L4.95312 12.8633C5.59766 12.8633 6.125 12.8047 6.24219 12.043C6.35938 11.2812 5.83203 11.1641 5.1875 11.1641ZM21.8281 11.1641H21.5938C21.4766 11.1641 21.418 11.2227 21.3594 11.3398L21.125 12.9219L21.5938 12.8633C22.3555 12.8633 22.8828 12.6875 22.8828 11.8086C22.8828 11.2227 22.3555 11.1641 21.8281 11.1641ZM34.25 3.54688C34.25 2.02344 32.9609 0.734375 31.4375 0.734375H3.3125C1.73047 0.734375 0.5 2.02344 0.5 3.54688V24.1719C0.5 25.7539 1.73047 26.9844 3.3125 26.9844H31.4375C32.9609 26.9844 34.25 25.7539 34.25 24.1719V3.54688ZM8 11.5156C8 13.2148 6.94531 14.2109 5.30469 14.2109C5.01172 14.2109 4.30859 14.0352 4.25 14.4453L3.95703 16.0273C3.95703 16.2031 3.78125 16.3789 3.66406 16.3789H2.55078C2.43359 16.3789 2.31641 16.2617 2.375 16.1445L3.3125 10.168C3.3125 9.99219 3.48828 9.875 3.60547 9.875H5.94922C7.0625 9.875 8 10.2852 8 11.5156ZM12.9219 12.043C13.0391 12.043 13.1562 12.1602 13.0977 12.2773L12.5117 16.0273C12.5117 16.2031 12.3359 16.3789 12.2188 16.3789H11.1641C11.0469 16.3789 10.9883 16.2617 10.9883 16.1445C10.9883 16.0273 11.0469 15.8516 11.0469 15.7344C10.6953 16.1445 10.0508 16.4375 9.52344 16.4375C8.35156 16.4375 7.64844 15.7344 7.64844 14.5625C7.64844 13.1562 8.76172 11.9258 10.168 11.9258C10.7539 11.9258 11.2227 11.9844 11.5742 12.5117C11.5742 12.3359 11.5742 12.043 11.8086 12.043H12.9219ZM15.3242 17.7852C15.2656 17.8438 15.1484 17.9023 15.0312 17.9023H13.918C13.8008 17.9023 13.7422 17.8438 13.7422 17.7266C13.7422 17.5508 14.7383 16.0859 14.9141 15.8516C14.7969 15.5586 13.6836 12.2773 13.6836 12.2188C13.6836 12.1602 13.7422 12.043 13.8594 12.043H14.9727C15.0898 12.043 15.2656 12.1602 15.2656 12.2773L15.9102 14.4453L17.4922 12.1602C17.5508 12.1016 17.668 12.043 17.7266 12.043H18.8984C18.957 12.043 19.0742 12.1602 19.0742 12.2188C19.0742 12.2773 19.0742 12.2773 19.0156 12.3359L15.3242 17.7852ZM24.6406 11.5156C24.6406 13.2148 23.5859 14.2109 21.9453 14.2109C21.6523 14.2109 20.9492 14.0352 20.8906 14.4453L20.5977 16.1445C20.5977 16.2617 20.4805 16.3789 20.3633 16.3789H19.1914C19.0742 16.3789 19.0156 16.2617 19.0156 16.1445L19.9531 10.168C19.9531 9.99219 20.1289 9.875 20.2461 9.875H22.5898C23.7031 9.875 24.6406 10.2852 24.6406 11.5156ZM29.5625 12.043C29.6797 12.043 29.7969 12.1602 29.7383 12.2773L29.1523 16.0273C29.1523 16.2031 28.9766 16.3789 28.8594 16.3789H27.8047C27.6875 16.3789 27.6289 16.2617 27.6289 16.1445C27.6289 16.0273 27.6875 15.8516 27.6875 15.7344C27.3359 16.1445 26.6914 16.4375 26.1641 16.4375C24.9922 16.4375 24.2891 15.7344 24.2891 14.5625C24.2891 13.1562 25.4023 11.9258 26.8086 11.9258C27.3945 11.9258 27.8633 11.9844 28.2148 12.5117C28.2148 12.3359 28.2148 12.043 28.4492 12.043H29.5625ZM32.375 10.0508V10.1094L31.3789 16.0273C31.3789 16.2031 31.2617 16.3789 31.0859 16.3789H30.1484C30.0312 16.3789 29.9141 16.2617 29.9141 16.1445L30.9102 10.0508C30.9102 9.93359 30.9688 9.875 31.0859 9.875H32.1406C32.2578 9.875 32.375 9.93359 32.375 10.0508ZM27.1016 13.0977C26.3398 13.0977 25.8125 13.6836 25.8125 14.3867C25.8125 14.9727 26.2227 15.2656 26.75 15.2656C27.4531 15.2656 28.0391 14.7383 28.0391 14.0352C28.0391 13.4492 27.6289 13.0977 27.1016 13.0977Z" fill="white"/>
</svg>
