<svg width="14" height="14" viewBox="0 0 14 14" fill="none" xmlns="http://www.w3.org/2000/svg">
<path d="M13.5898 9.64844C13.8086 9.75781 13.9727 10.0039 13.9727 10.2773C13.9727 10.3047 13.9727 10.3594 13.9727 10.4141L13.3164 13.2578C13.2344 13.5586 12.9883 13.75 12.6875 13.75C5.66016 13.75 0 8.08984 0 1.0625C0 0.761719 0.191406 0.515625 0.492188 0.433594L3.33594 -0.222656C3.39062 -0.222656 3.44531 -0.25 3.47266 -0.25C3.74609 -0.25 3.99219 -0.0859375 4.10156 0.160156L5.41406 3.22266C5.44141 3.30469 5.46875 3.38672 5.46875 3.46875C5.46875 3.6875 5.35938 3.87891 5.22266 3.98828L3.55469 5.35547C4.56641 7.48828 6.26172 9.18359 8.39453 10.1953L9.76172 8.52734C9.87109 8.39062 10.0625 8.28125 10.2539 8.28125C10.3633 8.28125 10.4453 8.30859 10.5273 8.33594L13.5898 9.64844Z" fill="white"/>
</svg>
