<svg width="14" height="14" viewBox="0 0 14 14" fill="none" xmlns="http://www.w3.org/2000/svg">
<path d="M13.5898 9.64844L10.5273 8.33594C10.4453 8.30859 10.3633 8.28125 10.2539 8.28125C10.0625 8.28125 9.87109 8.39062 9.76172 8.52734L8.39453 10.1953C6.26172 9.18359 4.56641 7.48828 3.55469 5.35547L5.22266 3.98828C5.35938 3.87891 5.46875 3.6875 5.46875 3.46875C5.46875 3.38672 5.44141 3.30469 5.41406 3.22266L4.10156 0.160156C3.99219 -0.0859375 3.74609 -0.25 3.47266 -0.25C3.44531 -0.25 3.39062 -0.222656 3.33594 -0.222656L0.492188 0.433594C0.191406 0.515625 0 0.761719 0 1.0625C0 8.08984 5.66016 13.75 12.6875 13.75C12.9883 13.75 13.2344 13.5586 13.3164 13.2578L13.9727 10.4141C13.9727 10.3594 13.9727 10.3047 13.9727 10.2773C13.9727 10.0039 13.8086 9.75781 13.5898 9.64844Z" fill="white"/>
</svg>
