<svg width="21" height="17" viewBox="0 0 21 17" fill="none" xmlns="http://www.w3.org/2000/svg">
<path d="M18.0297 4.75C18.8109 4.16406 19.514 3.46094 20.0609 2.64062C19.3578 2.95312 18.5375 3.1875 17.7172 3.26562C18.5765 2.75781 19.2015 1.97656 19.514 1C18.7328 1.46875 17.8344 1.82031 16.9359 2.01562C16.1547 1.19531 15.1 0.726562 13.9281 0.726562C11.6625 0.726562 9.82654 2.5625 9.82654 4.82812C9.82654 5.14062 9.8656 5.45312 9.94373 5.76562C6.54529 5.57031 3.49841 3.92969 1.46716 1.46875C1.1156 2.05469 0.920288 2.75781 0.920288 3.53906C0.920288 4.94531 1.62341 6.19531 2.75623 6.9375C2.09216 6.89844 1.4281 6.74219 0.881226 6.42969V6.46875C0.881226 8.46094 2.28748 10.1016 4.16248 10.4922C3.84998 10.5703 3.45935 10.6484 3.10779 10.6484C2.83435 10.6484 2.59998 10.6094 2.32654 10.5703C2.83435 12.2109 4.35779 13.3828 6.15466 13.4219C4.74841 14.5156 2.9906 15.1797 1.07654 15.1797C0.724976 15.1797 0.412476 15.1406 0.0999756 15.1016C1.89685 16.2734 4.04529 16.9375 6.38904 16.9375C13.9281 16.9375 18.0297 10.7266 18.0297 5.29688C18.0297 5.10156 18.0297 4.94531 18.0297 4.75Z" fill="white"/>
</svg>
