<svg width="18" height="16" viewBox="0 0 18 16" fill="none" xmlns="http://www.w3.org/2000/svg">
<path d="M17.8109 3.82836C17.9281 1.56274 17.0688 0.390863 15.2719 0.3518C12.85 0.273675 11.2094 1.64086 10.35 4.45336C11.4438 3.98461 13.0063 3.86742 12.85 5.6643C12.7719 6.25024 12.3813 7.14867 11.6391 8.28149C9.60782 11.5237 9.10001 10.4299 8.00626 3.35961C7.69376 1.36742 6.83438 0.429925 5.46719 0.547113C4.25626 0.6643 2.34219 2.61742 0.350006 4.4143L1.17032 5.46899C1.95157 4.92211 2.38126 4.64867 2.53751 4.64867C3.67032 4.64867 4.25626 7.57836 5.62344 12.6565C6.32657 14.5315 7.18594 15.469 8.20157 15.469C9.88126 15.469 11.8734 13.9065 14.2563 10.8205C16.5609 7.8518 17.7328 5.54711 17.8109 3.82836Z" fill="white"/>
</svg>
