<svg width="18" height="16" viewBox="0 0 18 16" fill="none" xmlns="http://www.w3.org/2000/svg">
<path d="M17.811 3.82836C17.9282 1.56274 17.0688 0.390863 15.272 0.3518C12.8501 0.273675 11.2095 1.64086 10.3501 4.45336C11.4438 3.98461 13.0063 3.86742 12.8501 5.6643C12.772 6.25024 12.3813 7.14867 11.6392 8.28149C9.60791 11.5237 9.1001 10.4299 8.00635 3.35961C7.69385 1.36742 6.83447 0.429925 5.46729 0.547113C4.25635 0.6643 2.34229 2.61742 0.350098 4.4143L1.17041 5.46899C1.95166 4.92211 2.38135 4.64867 2.5376 4.64867C3.67041 4.64867 4.25635 7.57836 5.62354 12.6565C6.32666 14.5315 7.18604 15.469 8.20166 15.469C9.88135 15.469 11.8735 13.9065 14.2563 10.8205C16.561 7.8518 17.7329 5.54711 17.811 3.82836Z" fill="white"/>
</svg>
