<svg width="22" height="16" viewBox="0 0 22 16" fill="none" xmlns="http://www.w3.org/2000/svg">
<path d="M21.2954 2.69531C21.061 1.75781 20.3188 1.01562 19.4204 0.78125C17.7407 0.3125 11.1001 0.3125 11.1001 0.3125C11.1001 0.3125 4.42041 0.3125 2.74072 0.78125C1.84229 1.01562 1.1001 1.75781 0.865723 2.69531C0.396973 4.33594 0.396973 7.85156 0.396973 7.85156C0.396973 7.85156 0.396973 11.3281 0.865723 13.0078C1.1001 13.9453 1.84229 14.6484 2.74072 14.8828C4.42041 15.3125 11.1001 15.3125 11.1001 15.3125C11.1001 15.3125 17.7407 15.3125 19.4204 14.8828C20.3188 14.6484 21.061 13.9453 21.2954 13.0078C21.7642 11.3281 21.7642 7.85156 21.7642 7.85156C21.7642 7.85156 21.7642 4.33594 21.2954 2.69531ZM8.9126 11.0156V4.6875L14.4595 7.85156L8.9126 11.0156Z" fill="white"/>
</svg>
