<svg width="21" height="17" viewBox="0 0 21 17" fill="none" xmlns="http://www.w3.org/2000/svg">
<path d="M18.0298 4.75C18.811 4.16406 19.5142 3.46094 20.061 2.64062C19.3579 2.95312 18.5376 3.1875 17.7173 3.26562C18.5767 2.75781 19.2017 1.97656 19.5142 1C18.7329 1.46875 17.8345 1.82031 16.936 2.01562C16.1548 1.19531 15.1001 0.726562 13.9282 0.726562C11.6626 0.726562 9.82666 2.5625 9.82666 4.82812C9.82666 5.14062 9.86572 5.45312 9.94385 5.76562C6.54541 5.57031 3.49854 3.92969 1.46729 1.46875C1.11572 2.05469 0.92041 2.75781 0.92041 3.53906C0.92041 4.94531 1.62354 6.19531 2.75635 6.9375C2.09229 6.89844 1.42822 6.74219 0.881348 6.42969V6.46875C0.881348 8.46094 2.2876 10.1016 4.1626 10.4922C3.8501 10.5703 3.45947 10.6484 3.10791 10.6484C2.83447 10.6484 2.6001 10.6094 2.32666 10.5703C2.83447 12.2109 4.35791 13.3828 6.15479 13.4219C4.74854 14.5156 2.99072 15.1797 1.07666 15.1797C0.725098 15.1797 0.412598 15.1406 0.100098 15.1016C1.89697 16.2734 4.04541 16.9375 6.38916 16.9375C13.9282 16.9375 18.0298 10.7266 18.0298 5.29688C18.0298 5.10156 18.0298 4.94531 18.0298 4.75Z" fill="white"/>
</svg>
