<svg width="13" height="21" viewBox="0 0 13 21" fill="none" xmlns="http://www.w3.org/2000/svg">
<path d="M5.35938 12.8828C5.75 12.9609 6.17969 13 6.60938 13C7 13 7.42969 12.9609 7.85938 12.8828V19.0156L6.96094 20.3047C6.80469 20.5781 6.375 20.5781 6.21875 20.3047L5.35938 19.0156V12.8828ZM6.60938 0.5C9.69531 0.5 12.2344 3.03906 12.2344 6.125C12.2344 9.25 9.69531 11.75 6.60938 11.75C3.48438 11.75 0.984375 9.25 0.984375 6.125C0.984375 3.03906 3.48438 0.5 6.60938 0.5ZM6.60938 3.46875C6.84375 3.46875 7.07812 3.27344 7.07812 3C7.07812 2.76562 6.84375 2.53125 6.60938 2.53125C4.61719 2.53125 3.01562 4.17188 3.01562 6.125C3.01562 6.39844 3.21094 6.59375 3.48438 6.59375C3.71875 6.59375 3.95312 6.39844 3.95312 6.125C3.95312 4.67969 5.125 3.46875 6.60938 3.46875Z" fill="black"/>
</svg>
