<svg width="21" height="21" viewBox="0 0 21 21" fill="none" xmlns="http://www.w3.org/2000/svg">
<path d="M20.3984 14.6406C20.7109 14.7969 20.9453 15.1484 20.9453 15.5391C20.9453 15.5781 20.9453 15.6562 20.9453 15.7344L20.0078 19.7969C19.8906 20.2266 19.5391 20.5 19.1094 20.5C9.07031 20.5 0.984375 12.4141 0.984375 2.375C0.984375 1.94531 1.25781 1.59375 1.6875 1.47656L5.75 0.539062C5.82812 0.539062 5.90625 0.5 5.94531 0.5C6.33594 0.5 6.6875 0.734375 6.84375 1.08594L8.71875 5.46094C8.75781 5.57812 8.79688 5.69531 8.79688 5.8125C8.79688 6.125 8.64062 6.39844 8.44531 6.55469L6.0625 8.50781C7.50781 11.5547 9.92969 13.9766 12.9766 15.4219L14.9297 13.0391C15.0859 12.8438 15.3594 12.6875 15.6328 12.6875C15.7891 12.6875 15.9062 12.7266 16.0234 12.7656L20.3984 14.6406Z" fill="black"/>
</svg>
