<svg width="21" height="15" viewBox="0 0 21 15" fill="none" xmlns="http://www.w3.org/2000/svg">
<path d="M20.5938 4.96094C19.6953 5.66406 18.5625 6.52344 14.5781 9.41406C13.7969 10 12.3516 11.2891 10.9844 11.2891C9.57812 11.2891 8.17188 10 7.35156 9.41406C3.36719 6.52344 2.23438 5.66406 1.33594 4.96094C1.17969 4.84375 0.984375 4.96094 0.984375 5.15625V13.125C0.984375 14.1797 1.80469 15 2.85938 15H19.1094C20.125 15 20.9844 14.1797 20.9844 13.125V5.15625C20.9844 4.96094 20.75 4.84375 20.5938 4.96094ZM10.9844 10C11.8828 10.0391 13.1719 8.86719 13.8359 8.39844C19.0312 4.64844 19.4219 4.29688 20.5938 3.35938C20.8281 3.20312 20.9844 2.92969 20.9844 2.61719V1.875C20.9844 0.859375 20.125 0 19.1094 0H2.85938C1.80469 0 0.984375 0.859375 0.984375 1.875V2.61719C0.984375 2.92969 1.10156 3.20312 1.33594 3.35938C2.50781 4.29688 2.89844 4.64844 8.09375 8.39844C8.75781 8.86719 10.0469 10.0391 10.9844 10Z" fill="black"/>
</svg>
