<svg width="21" height="15" viewBox="0 0 21 15" fill="none" xmlns="http://www.w3.org/2000/svg">
<path d="M20.5938 4.96094C20.75 4.84375 20.9844 4.96094 20.9844 5.15625V13.125C20.9844 14.1797 20.125 15 19.1094 15H2.85938C1.80469 15 0.984375 14.1797 0.984375 13.125V5.15625C0.984375 4.96094 1.17969 4.84375 1.33594 4.96094C2.23438 5.66406 3.36719 6.52344 7.35156 9.41406C8.17188 10 9.57812 11.2891 10.9844 11.2891C12.3516 11.2891 13.7969 10 14.5781 9.41406C18.5625 6.52344 19.6953 5.66406 20.5938 4.96094ZM10.9844 10C10.0469 10.0391 8.75781 8.86719 8.09375 8.39844C2.89844 4.64844 2.50781 4.29688 1.33594 3.35938C1.10156 3.20312 0.984375 2.92969 0.984375 2.61719V1.875C0.984375 0.859375 1.80469 0 2.85938 0H19.1094C20.125 0 20.9844 0.859375 20.9844 1.875V2.61719C20.9844 2.92969 20.8281 3.20312 20.5938 3.35938C19.4219 4.29688 19.0312 4.64844 13.8359 8.39844C13.1719 8.86719 11.8828 10.0391 10.9844 10Z" fill="black"/>
</svg>
